<svg width="48" height="48" viewBox="0 0 48 48" fill="none" xmlns="http://www.w3.org/2000/svg" preserveAspectRatio="xMidYMid meet">
<path d="M19.8557 3.31828C20.1514 3.25897 20.456 3.25849 20.7519 3.31688C21.0479 3.37527 21.3294 3.49137 21.5805 3.65857C21.8316 3.82576 22.0473 4.04078 22.2152 4.29133C22.3832 4.54188 22.5002 4.82306 22.5595 5.11882C22.6188 5.41458 22.6193 5.71913 22.5609 6.01507C22.5025 6.31102 22.3864 6.59256 22.2192 6.84364C22.052 7.09471 21.837 7.31039 21.5865 7.47837C21.3359 7.64635 21.0547 7.76333 20.759 7.82264C12.6786 9.44264 6.77241 16.5652 6.77241 24.8986C6.77241 34.5183 14.579 42.3172 24.2117 42.3172C32.4873 42.3172 39.575 36.5157 41.2713 28.5368C41.334 28.2418 41.4542 27.962 41.625 27.7134C41.7958 27.4648 42.0139 27.2522 42.2669 27.0879C42.5198 26.9236 42.8026 26.8107 43.0992 26.7557C43.3958 26.7007 43.7003 26.7047 43.9953 26.7674C44.2904 26.83 44.5702 26.9502 44.8188 27.121C45.0674 27.2918 45.2799 27.51 45.4442 27.7629C45.6085 28.0158 45.7214 28.2987 45.7764 28.5953C45.8314 28.8918 45.8275 29.1963 45.7648 29.4914C43.62 39.5823 34.667 46.9099 24.2128 46.9099C12.0448 46.9099 2.17969 37.0557 2.17969 24.8986C2.17969 14.3648 9.64151 5.36809 19.8557 3.31828ZM41.2222 3.27464C41.8254 3.2745 42.4226 3.39315 42.9799 3.62382C43.5371 3.8545 44.0435 4.19267 44.4701 4.61905C44.8967 5.04542 45.2351 5.55164 45.466 6.1088C45.697 6.66596 45.8159 7.26315 45.816 7.86628V20.499C45.8161 20.8006 45.7567 21.0992 45.6413 21.3779C45.526 21.6565 45.3568 21.9097 45.1436 22.123C44.9303 22.3363 44.6772 22.5054 44.3985 22.6209C44.1199 22.7363 43.8213 22.7957 43.5197 22.7957C43.2181 22.7957 42.9195 22.7363 42.6408 22.6209C42.3622 22.5054 42.109 22.3363 41.8958 22.123C41.6826 21.9097 41.5134 21.6565 41.398 21.3779C41.2826 21.0992 41.2233 20.8006 41.2233 20.499V10.539L22.8437 29.4935C22.4424 29.9078 21.8998 30.1558 21.324 30.1884C20.7481 30.2209 20.1811 30.0356 19.7357 29.6692L19.596 29.5437C19.3795 29.3338 19.2064 29.0833 19.0866 28.8064C18.9669 28.5296 18.9029 28.2319 18.8982 27.9303C18.8936 27.6287 18.9483 27.3292 19.0595 27.0488C19.1706 26.7684 19.3359 26.5126 19.5459 26.2961L37.416 7.86628H28.5906C28.01 7.86639 27.4509 7.64658 27.0259 7.25107C26.6008 6.85557 26.3413 6.31374 26.2997 5.73464L26.2942 5.571C26.2942 4.30228 27.323 3.27355 28.5906 3.27355L41.2222 3.27464Z" fill="#FFD696"/>
</svg>
